<svg width="16" height="25" viewBox="0 0 16 25" fill="none" xmlns="http://www.w3.org/2000/svg">
<path d="M6.97329 20.5715C6.76394 20.5702 6.5572 20.5248 6.36663 20.4381C6.16051 20.3473 5.9849 20.199 5.86077 20.011C5.73665 19.8231 5.66925 19.6034 5.66663 19.3781V13.7648C5.66925 13.5396 5.73665 13.3198 5.86077 13.1319C5.9849 12.9439 6.16051 12.7956 6.36663 12.7048C6.60379 12.5928 6.86765 12.5496 7.12814 12.5803C7.38863 12.6109 7.63527 12.7141 7.83996 12.8781L11.24 15.6848C11.3733 15.7909 11.481 15.9258 11.555 16.0793C11.629 16.2328 11.6674 16.401 11.6674 16.5715C11.6674 16.7419 11.629 16.9101 11.555 17.0636C11.481 17.2171 11.3733 17.352 11.24 17.4581L7.83996 20.2648C7.59488 20.4635 7.28883 20.5718 6.97329 20.5715Z" fill="white"/>
</svg>
