<svg width="16" height="17" viewBox="0 0 16 17" fill="none" xmlns="http://www.w3.org/2000/svg">
<path d="M6.97317 12.5711C6.76382 12.5699 6.55708 12.5244 6.3665 12.4378C6.16039 12.3469 5.98478 12.1986 5.86065 12.0107C5.73653 11.8227 5.66913 11.603 5.6665 11.3778V5.76442C5.66913 5.53919 5.73653 5.31947 5.86065 5.1315C5.98478 4.94354 6.16039 4.79528 6.3665 4.70442C6.60367 4.5924 6.86753 4.54926 7.12802 4.5799C7.38851 4.61055 7.63515 4.71375 7.83984 4.87776L11.2398 7.68442C11.3732 7.79057 11.4808 7.92542 11.5548 8.07893C11.6289 8.23244 11.6673 8.40067 11.6673 8.57109C11.6673 8.74151 11.6289 8.90974 11.5548 9.06325C11.4808 9.21677 11.3732 9.35161 11.2398 9.45776L7.83984 12.2644C7.59476 12.4632 7.28871 12.5715 6.97317 12.5711Z" fill="white"/>
</svg>
